%TF.GenerationSoftware,KiCad,Pcbnew,10.0.4*%
%TF.CreationDate,2026-07-11T11:08:50+03:00*%
%TF.ProjectId,gamepad,67616d65-7061-4642-9e6b-696361645f70,rev?*%
%TF.SameCoordinates,Original*%
%TF.FileFunction,Soldermask,Bot*%
%TF.FilePolarity,Negative*%
%FSLAX46Y46*%
G04 Gerber Fmt 4.6, Leading zero omitted, Abs format (unit mm)*
G04 Created by KiCad (PCBNEW 10.0.4) date 2026-07-11 11:08:50*
%MOMM*%
%LPD*%
G01*
G04 APERTURE LIST*
G04 Aperture macros list*
%AMRoundRect*
0 Rectangle with rounded corners*
0 $1 Rounding radius*
0 $2 $3 $4 $5 $6 $7 $8 $9 X,Y pos of 4 corners*
0 Add a 4 corners polygon primitive as box body*
4,1,4,$2,$3,$4,$5,$6,$7,$8,$9,$2,$3,0*
0 Add four circle primitives for the rounded corners*
1,1,$1+$1,$2,$3*
1,1,$1+$1,$4,$5*
1,1,$1+$1,$6,$7*
1,1,$1+$1,$8,$9*
0 Add four rect primitives between the rounded corners*
20,1,$1+$1,$2,$3,$4,$5,0*
20,1,$1+$1,$4,$5,$6,$7,0*
20,1,$1+$1,$6,$7,$8,$9,0*
20,1,$1+$1,$8,$9,$2,$3,0*%
G04 Aperture macros list end*
%ADD10C,1.600000*%
%ADD11C,2.000000*%
%ADD12R,1.600000X1.600000*%
%ADD13O,1.600000X1.600000*%
%ADD14R,1.800000X1.800000*%
%ADD15C,1.800000*%
%ADD16C,2.500000*%
%ADD17RoundRect,0.250000X-0.550000X0.550000X-0.550000X-0.550000X0.550000X-0.550000X0.550000X0.550000X0*%
%ADD18RoundRect,0.250000X0.550000X-0.550000X0.550000X0.550000X-0.550000X0.550000X-0.550000X-0.550000X0*%
%ADD19C,1.270000*%
%ADD20RoundRect,0.250000X-0.350000X-0.650000X0.350000X-0.650000X0.350000X0.650000X-0.350000X0.650000X0*%
%ADD21O,1.200000X1.800000*%
%ADD22RoundRect,0.190500X-0.444500X-0.444500X0.444500X-0.444500X0.444500X0.444500X-0.444500X0.444500X0*%
%ADD23R,2.000000X2.000000*%
G04 APERTURE END LIST*
D10*
%TO.C,C2*%
X134000000Y-85000000D03*
X134000000Y-90000000D03*
%TD*%
%TO.C,R4*%
X134000000Y-81500000D03*
X134000000Y-73880000D03*
%TD*%
D11*
%TO.C,SW3*%
X143750000Y-105500000D03*
X143750000Y-99000000D03*
X148250000Y-105500000D03*
X148250000Y-99000000D03*
%TD*%
D12*
%TO.C,A1*%
X172000000Y-95050000D03*
D13*
X172000000Y-92510000D03*
X172000000Y-89970000D03*
X172000000Y-87430000D03*
X172000000Y-84890000D03*
X172000000Y-82350000D03*
X172000000Y-79810000D03*
X172000000Y-77270000D03*
X172000000Y-74730000D03*
X172000000Y-72190000D03*
X172000000Y-69650000D03*
X172000000Y-67110000D03*
X172000000Y-64570000D03*
X172000000Y-62030000D03*
X172000000Y-59490000D03*
X156760000Y-59490000D03*
X156760000Y-62030000D03*
X156760000Y-64570000D03*
X156760000Y-67110000D03*
X156760000Y-69650000D03*
X156760000Y-72190000D03*
X156760000Y-74730000D03*
X156760000Y-77270000D03*
X156760000Y-79810000D03*
X156760000Y-82350000D03*
X156760000Y-84890000D03*
X156760000Y-87430000D03*
X156760000Y-89970000D03*
X156760000Y-92510000D03*
X156760000Y-95050000D03*
%TD*%
D14*
%TO.C,D1*%
X77500000Y-67000000D03*
D15*
X80040000Y-67000000D03*
%TD*%
D10*
%TO.C,R10*%
X148950000Y-72810000D03*
X148950000Y-65190000D03*
%TD*%
D11*
%TO.C,SW5*%
X80570000Y-99640000D03*
X87070000Y-99640000D03*
X80570000Y-104140000D03*
X87070000Y-104140000D03*
%TD*%
D10*
%TO.C,C5*%
X123000000Y-90000000D03*
X123000000Y-85000000D03*
%TD*%
%TO.C,R6*%
X128500000Y-81500000D03*
X128500000Y-73880000D03*
%TD*%
%TO.C,C6*%
X117500000Y-90000000D03*
X117500000Y-85000000D03*
%TD*%
D16*
%TO.C,H1*%
X78500000Y-59500000D03*
%TD*%
D11*
%TO.C,SW4*%
X88190000Y-92020000D03*
X94690000Y-92020000D03*
X88190000Y-96520000D03*
X94690000Y-96520000D03*
%TD*%
D16*
%TO.C,H3*%
X78500000Y-115500000D03*
%TD*%
D10*
%TO.C,R3*%
X76690000Y-73000000D03*
X84310000Y-73000000D03*
%TD*%
D16*
%TO.C,H2*%
X151500000Y-59500000D03*
%TD*%
%TO.C,H4*%
X151500000Y-115500000D03*
%TD*%
D11*
%TO.C,SW6*%
X88190000Y-107260000D03*
X94690000Y-107260000D03*
X88190000Y-111760000D03*
X94690000Y-111760000D03*
%TD*%
D10*
%TO.C,R2*%
X84328000Y-92303600D03*
X76708000Y-92303600D03*
%TD*%
%TO.C,R5*%
X139500000Y-81500000D03*
X139500000Y-73880000D03*
%TD*%
D17*
%TO.C,U1*%
X84810000Y-80695000D03*
D10*
X82270000Y-80695000D03*
X79730000Y-80695000D03*
X77190000Y-80695000D03*
X77190000Y-88315000D03*
X79730000Y-88315000D03*
X82270000Y-88315000D03*
X84810000Y-88315000D03*
%TD*%
D11*
%TO.C,SW2*%
X130250000Y-112250000D03*
X130250000Y-105750000D03*
X134750000Y-112250000D03*
X134750000Y-105750000D03*
%TD*%
D10*
%TO.C,C7*%
X112000000Y-90000000D03*
X112000000Y-85000000D03*
%TD*%
D18*
%TO.C,C1*%
X91500000Y-75500000D03*
D10*
X91500000Y-73000000D03*
%TD*%
D18*
%TO.C,D2*%
X112000000Y-66310000D03*
D10*
X112000000Y-58690000D03*
%TD*%
%TO.C,C3*%
X139500000Y-90000000D03*
X139500000Y-85000000D03*
%TD*%
D14*
%TO.C,D4*%
X99460000Y-78500000D03*
D15*
X102000000Y-78500000D03*
%TD*%
D19*
%TO.C,SW1*%
X97000000Y-65500000D03*
X97000000Y-62960000D03*
X97000000Y-60420000D03*
%TD*%
D10*
%TO.C,R1*%
X76690000Y-77000000D03*
X84310000Y-77000000D03*
%TD*%
D20*
%TO.C,J1*%
X86000000Y-64500000D03*
D21*
X88000000Y-64500000D03*
%TD*%
D22*
%TO.C,U2*%
X122190000Y-58760000D03*
D19*
X124730000Y-58760000D03*
X127270000Y-58760000D03*
X129810000Y-58760000D03*
%TD*%
D10*
%TO.C,C4*%
X128500000Y-90000000D03*
X128500000Y-85000000D03*
%TD*%
D14*
%TO.C,D3*%
X149960000Y-78500000D03*
D15*
X152500000Y-78500000D03*
%TD*%
D11*
%TO.C,SW7*%
X96520000Y-99640000D03*
X103020000Y-99640000D03*
X96520000Y-104140000D03*
X103020000Y-104140000D03*
%TD*%
D10*
%TO.C,R8*%
X117500000Y-81310000D03*
X117500000Y-73690000D03*
%TD*%
%TO.C,R11*%
X153000000Y-72810000D03*
X153000000Y-65190000D03*
%TD*%
D23*
%TO.C,BZ1*%
X139500000Y-60000000D03*
D11*
X139500000Y-67600000D03*
%TD*%
D10*
%TO.C,R9*%
X112000000Y-81310000D03*
X112000000Y-73690000D03*
%TD*%
%TO.C,R7*%
X123000000Y-81310000D03*
X123000000Y-73690000D03*
%TD*%
M02*
