M48
; DRILL file KiCad 10.0.4 date 2026-07-11T11:08:28
; FORMAT={-:-/ absolute / inch / decimal}
; #@! TF.CreationDate,2026-07-11T11:08:28+03:00
; #@! TF.GenerationSoftware,Kicad,Pcbnew,10.0.4
; #@! TF.FileFunction,Plated,1,2,PTH
FMAT,2
INCH
; #@! TA.AperFunction,Plated,PTH,ViaDrill
T1C0.0118
; #@! TA.AperFunction,Plated,PTH,ComponentDrill
T2C0.0315
; #@! TA.AperFunction,Plated,PTH,ComponentDrill
T3C0.0354
; #@! TA.AperFunction,Plated,PTH,ComponentDrill
T4C0.0394
; #@! TA.AperFunction,Plated,PTH,ComponentDrill
T5C0.0433
%
G90
G05
T1
X3.339Y-3.477
X4.624Y-3.7733
X4.626Y-3.5433
X4.658Y-2.72
X4.8425Y-3.2012
X5.0591Y-3.5433
X5.356Y-2.428
X5.4921Y-3.2087
X5.768Y-2.784
X5.834Y-3.668
X5.8642Y-2.5665
X6.1717Y-3.1421
T2
X3.0193Y-2.874
X3.0193Y-3.0315
X3.02Y-3.634
X3.039Y-3.177
X3.039Y-3.477
X3.139Y-3.177
X3.139Y-3.477
X3.239Y-3.177
X3.239Y-3.477
X3.3193Y-2.874
X3.3193Y-3.0315
X3.32Y-3.634
X3.339Y-3.177
X3.339Y-3.477
X3.3858Y-2.5394
X3.4646Y-2.5394
X3.6024Y-2.874
X3.6024Y-2.9724
X3.8189Y-2.3787
X3.8189Y-2.4787
X3.8189Y-2.5787
X4.4094Y-2.3106
X4.4094Y-2.6106
X4.4094Y-2.9012
X4.4094Y-3.2012
X4.4094Y-3.3465
X4.4094Y-3.5433
X4.626Y-2.9012
X4.626Y-3.2012
X4.626Y-3.3465
X4.626Y-3.5433
X4.8106Y-2.3134
X4.8425Y-2.9012
X4.8425Y-3.2012
X4.8425Y-3.3465
X4.8425Y-3.5433
X4.9106Y-2.3134
X5.0106Y-2.3134
X5.0591Y-2.9087
X5.0591Y-3.2087
X5.0591Y-3.3465
X5.0591Y-3.5433
X5.1106Y-2.3134
X5.2756Y-2.9087
X5.2756Y-3.2087
X5.2756Y-3.3465
X5.2756Y-3.5433
X5.4921Y-2.9087
X5.4921Y-3.2087
X5.4921Y-3.3465
X5.4921Y-3.5433
X5.8642Y-2.5665
X5.8642Y-2.8665
X6.0236Y-2.5665
X6.0236Y-2.8665
T3
X3.0512Y-2.6378
X3.1512Y-2.6378
X3.9157Y-3.0906
X4.0157Y-3.0906
X5.9039Y-3.0906
X6.0039Y-3.0906
T4
X5.4921Y-2.3622
X5.4921Y-2.6614
X6.1717Y-2.3421
X6.1717Y-2.4421
X6.1717Y-2.5421
X6.1717Y-2.6421
X6.1717Y-2.7421
X6.1717Y-2.8421
X6.1717Y-2.9421
X6.1717Y-3.0421
X6.1717Y-3.1421
X6.1717Y-3.2421
X6.1717Y-3.3421
X6.1717Y-3.4421
X6.1717Y-3.5421
X6.1717Y-3.6421
X6.1717Y-3.7421
X6.7717Y-2.3421
X6.7717Y-2.4421
X6.7717Y-2.5421
X6.7717Y-2.6421
X6.7717Y-2.7421
X6.7717Y-2.8421
X6.7717Y-2.9421
X6.7717Y-3.0421
X6.7717Y-3.1421
X6.7717Y-3.2421
X6.7717Y-3.3421
X6.7717Y-3.4421
X6.7717Y-3.5421
X6.7717Y-3.6421
X6.7717Y-3.7421
T5
X3.172Y-3.9228
X3.172Y-4.1
X3.428Y-3.9228
X3.428Y-4.1
X3.472Y-3.6228
X3.472Y-3.8
X3.472Y-4.2228
X3.472Y-4.4
X3.728Y-3.6228
X3.728Y-3.8
X3.728Y-4.2228
X3.728Y-4.4
X3.8Y-3.9228
X3.8Y-4.1
X4.0559Y-3.9228
X4.0559Y-4.1
X5.128Y-4.1634
X5.128Y-4.4193
X5.3051Y-4.1634
X5.3051Y-4.4193
X5.6594Y-3.8976
X5.6594Y-4.1535
X5.8366Y-3.8976
X5.8366Y-4.1535
M30
